<svg width="50" height="50" viewBox="0 0 50 50" fill="#132745" xmlns="http://www.w3.org/2000/svg">
<path d="M40.7207 37.4043C41.161 37.8446 41.4084 38.4418 41.4084 39.0645C41.4084 39.6871 41.161 40.2843 40.7207 40.7246C40.2804 41.1649 39.6832 41.4123 39.0606 41.4123C38.4379 41.4123 37.8407 41.1649 37.4004 40.7246L25 28.3203L12.5957 40.7207C12.1554 41.161 11.5582 41.4084 10.9356 41.4084C10.3129 41.4084 9.7157 41.161 9.2754 40.7207C8.8351 40.2804 8.58774 39.6832 8.58774 39.0606C8.58774 38.4379 8.8351 37.8407 9.2754 37.4004L21.6797 25L9.2793 12.5957C8.839 12.1554 8.59164 11.5582 8.59164 10.9356C8.59164 10.3129 8.839 9.7157 9.2793 9.2754C9.7196 8.8351 10.3168 8.58774 10.9395 8.58774C11.5621 8.58774 12.1593 8.8351 12.5996 9.2754L25 21.6797L37.4043 9.27344C37.8446 8.83314 38.4418 8.58578 39.0645 8.58578C39.6871 8.58578 40.2843 8.83314 40.7246 9.27344C41.1649 9.71374 41.4123 10.3109 41.4123 10.9336C41.4123 11.5563 41.1649 12.1535 40.7246 12.5938L28.3203 25L40.7207 37.4043Z"/>
</svg>
